<svg width="61" height="61" viewBox="0 0 61 61" fill="none" xmlns="http://www.w3.org/2000/svg">
<g opacity="0.5">
<mask id="mask0_13_409" style="mask-type:alpha" maskUnits="userSpaceOnUse" x="0" y="0" width="61" height="61">
<rect x="0.5" y="0.5" width="60" height="60" fill="#D9D9D9"/>
</mask>
<g mask="url(#mask0_13_409)">
<path d="M24.75 44.875L23 43.125L28.75 37.375L23 31.625L24.75 29.875L30.5 35.625L36.25 29.875L38 31.625L32.25 37.375L38 43.125L36.25 44.875L30.5 39.125L24.75 44.875ZM14.5625 53C13.3958 53 12.4275 52.615 11.6575 51.845C10.8858 51.0733 10.5 50.1042 10.5 48.9375V17.0625C10.5 15.8958 10.8858 14.9275 11.6575 14.1575C12.4275 13.3858 13.3958 13 14.5625 13H18.9375V7.4375H21.625V13H39.5625V7.4375H42.0625V13H46.4375C47.6042 13 48.5733 13.3858 49.345 14.1575C50.115 14.9275 50.5 15.8958 50.5 17.0625V48.9375C50.5 50.1042 50.115 51.0733 49.345 51.845C48.5733 52.615 47.6042 53 46.4375 53H14.5625ZM14.5625 50.5H46.4375C46.8542 50.5 47.2183 50.3433 47.53 50.03C47.8433 49.7183 48 49.3542 48 48.9375V27.0625H13V48.9375C13 49.3542 13.1567 49.7183 13.47 50.03C13.7817 50.3433 14.1458 50.5 14.5625 50.5ZM13 24.5625H48V17.0625C48 16.6458 47.8433 16.2817 47.53 15.97C47.2183 15.6567 46.8542 15.5 46.4375 15.5H14.5625C14.1458 15.5 13.7817 15.6567 13.47 15.97C13.1567 16.2817 13 16.6458 13 17.0625V24.5625Z" fill="#030445"/>
</g>
</g>
</svg>
