<svg width="152" height="47" viewBox="0 0 152 47" fill="none" xmlns="http://www.w3.org/2000/svg">
<rect width="151.5" height="46.5" fill="#FFC915"/>
<path d="M60.202 35.7007C57.6288 35.3986 55.549 34.4339 53.8779 32.7682C51.8117 30.7096 50.7148 27.934 50.7148 24.7625C50.7148 18.3875 55.2382 13.7138 61.3969 13.724C63.0207 13.7269 64.6402 14.1112 66.0699 14.8347C66.7515 15.1797 67.6236 15.7688 68.0846 16.196C68.2593 16.358 68.419 16.4902 68.439 16.4902C68.4591 16.4902 68.4763 15.9504 68.4763 15.2916V14.0916H71.1432V35.4334H68.4763V32.9629L68.2328 33.1678C66.4444 34.6714 64.8163 35.4036 62.6584 35.676C62.1859 35.7356 60.6301 35.7516 60.202 35.7007V35.7007ZM62.6613 32.8757C65.8852 32.3266 68.1204 30.0159 68.7576 26.5727C68.9058 25.7744 68.9094 23.7659 68.7648 22.9792C68.5958 22.0617 68.3696 21.3578 67.9937 20.5806C66.884 18.2866 64.9287 16.8962 62.3233 16.5475C61.4212 16.4262 60.1039 16.504 59.2419 16.7284C56.7281 17.3829 54.7893 19.2309 53.9116 21.8104C53.5472 22.8818 53.4734 23.3787 53.4734 24.7625C53.4734 25.8267 53.4927 26.0787 53.6145 26.633C54.3447 29.9432 56.6859 32.3048 59.8032 32.8779C60.4504 32.9963 61.9582 32.9956 62.6613 32.8757ZM36.9406 35.615C35.1578 35.4254 33.5111 34.8378 32.1028 33.8898C31.3153 33.3595 30.0838 32.1028 29.5469 31.282C28.2352 29.2757 27.6059 26.8683 27.6983 24.209C27.7828 21.7915 28.4457 19.727 29.733 17.8747C29.9206 17.6037 30.4024 17.0488 30.8019 16.6405C32.2303 15.1848 33.95 14.263 36.0227 13.8424C36.8575 13.6731 38.7254 13.6092 39.5939 13.7196C43.5946 14.231 46.5916 16.9492 47.6212 21.0019C47.8718 21.9891 47.9849 22.8295 48.0286 24.0397L48.0665 25.1003H30.3896L30.4297 25.7308C30.6086 28.534 32.2117 31.0452 34.6051 32.2714C35.7363 32.851 36.8153 33.1031 38.172 33.1046C40.4989 33.1075 42.2565 32.3782 43.7207 30.8048C44.0865 30.4118 44.912 29.2866 45.0545 28.988C45.0724 28.951 47.3813 30.4844 47.3813 30.5331C47.3813 30.682 46.4356 31.959 45.9136 32.5133C43.9863 34.5617 41.5979 35.5714 38.5006 35.6463C37.9336 35.6608 37.2319 35.6463 36.9406 35.615V35.615ZM45.29 22.4409C44.7881 19.2345 42.6317 16.91 39.5917 16.2991C38.9517 16.1705 37.2971 16.1851 36.652 16.3253C35.1199 16.6587 33.8419 17.3313 32.7801 18.3643C31.6561 19.4583 30.9072 20.8319 30.5063 22.5331L30.4662 22.7024H45.3301L45.29 22.4409ZM125.487 35.6107C120.843 35.1719 117.395 31.9786 116.46 27.2533C115.825 24.0375 116.415 20.6844 118.052 18.2059C119.62 15.8306 121.854 14.3618 124.745 13.8024C125.562 13.6448 127.989 13.6455 128.76 13.8046C130.689 14.202 132.284 15.054 133.613 16.3979C135.528 18.3345 136.549 21.0738 136.549 24.2678V25.1003L127.745 25.1163L118.94 25.1315L118.956 25.624C119.021 27.5613 119.923 29.5873 121.34 30.9726C122.438 32.0469 123.77 32.7268 125.325 33.008C126.015 33.1322 127.5 33.1314 128.195 33.008C130.349 32.62 131.909 31.5457 133.244 29.5292C133.434 29.2415 133.613 29.0127 133.64 29.0207C133.712 29.0396 135.778 30.3878 135.866 30.4735C135.959 30.5629 135.39 31.4324 134.725 32.2183C132.601 34.7237 129.223 35.9644 125.487 35.6107ZM133.821 22.5331C133.821 22.4402 133.768 22.1402 133.703 21.8663C132.975 18.782 130.828 16.7284 127.851 16.2657C126.716 16.0892 125.363 16.2105 124.214 16.5926C121.731 17.4185 119.81 19.5069 119.151 22.0973C119.085 22.3566 119.031 22.5985 119.031 22.6348C119.031 22.6828 121.158 22.7024 126.426 22.7024H133.822L133.822 22.5331H133.821ZM14.9507 24.7313V14.0305H27.5594V16.5512L22.6035 16.5672L17.6484 16.5824L17.6327 26.0083L17.6176 35.4334H14.9507V24.7313ZM75.8105 20.4258V5.48145H78.5383V35.3717H75.8105V20.4258ZM83.2063 24.7V14.0291H85.8733L85.8761 15.4289L85.879 16.8279L86.1038 16.5519C86.8448 15.6381 87.6088 14.9952 88.4736 14.5572C89.5046 14.0342 90.4117 13.8061 91.6926 13.7436C93.1703 13.6731 94.3724 13.9056 95.5423 14.4882C96.783 15.1056 97.6758 15.9933 98.5171 17.4468C98.5743 17.5471 98.6101 17.5195 98.8285 17.194C99.9748 15.4906 101.68 14.364 103.817 13.8991C104.664 13.7146 106.524 13.6957 107.345 13.8627C108.845 14.17 110.026 14.7882 111.003 15.779C112.044 16.8337 112.682 18.1042 113.075 19.8963L113.237 20.6409L113.257 28.0066L113.277 35.371H110.605V28.797C110.605 24.6978 110.582 21.9833 110.542 21.5859C110.293 19.0609 109.005 17.2362 106.992 16.5548C106.202 16.2908 105.365 16.203 104.538 16.2977C101.941 16.5831 100.263 18.0084 99.6769 20.4258C99.5523 20.9387 99.5495 21.0883 99.5287 28.1599L99.5072 35.371H96.8453V28.9226C96.8453 25.0683 96.8202 22.162 96.783 21.6985C96.5353 18.5982 94.8578 16.6333 92.178 16.3027C89.733 16.0006 87.1949 17.449 86.2742 19.6733C85.889 20.6009 85.9112 20.12 85.889 28.0996L85.869 35.3717H83.2056V24.7007L83.2063 24.7Z" fill="black"/>
</svg>
