<svg width="646" height="90" viewBox="0 0 646 90" fill="none" xmlns="http://www.w3.org/2000/svg">
<path d="M10.8599 27.9999V38.0799C14.2999 30.6399 20.5399 26.9199 29.5799 26.9199V37.8399C24.4599 37.5999 20.0599 38.9599 16.3799 41.9199C12.6999 44.8799 10.8599 49.6399 10.8599 56.1999V87.9999H0.419922V27.9999H10.8599Z" fill="url(#paint0_linear_196_2323)"/>
<path d="M94.1137 62.7999H43.8337C44.8737 68.0799 47.3137 72.2399 51.1537 75.2799C54.9937 78.2399 59.7937 79.7199 65.5537 79.7199C73.4737 79.7199 79.2337 76.7999 82.8337 70.9599L91.7137 75.9999C85.7937 85.0399 76.9937 89.5599 65.3137 89.5599C55.8737 89.5599 48.1137 86.5999 42.0337 80.6799C36.1137 74.5999 33.1537 67.0399 33.1537 57.9999C33.1537 48.8799 36.0737 41.3599 41.9137 35.4399C47.7537 29.4399 55.3137 26.4399 64.5937 26.4399C73.3937 26.4399 80.5537 29.5599 86.0737 35.7999C91.6737 41.8799 94.4737 49.3199 94.4737 58.1199C94.4737 59.6399 94.3537 61.1999 94.1137 62.7999ZM64.5937 36.2799C59.0737 36.2799 54.4337 37.8399 50.6737 40.9599C46.9937 44.0799 44.7137 48.3199 43.8337 53.6799H83.9137C83.0337 48.1599 80.8337 43.8799 77.3137 40.8399C73.7937 37.7999 69.5537 36.2799 64.5937 36.2799Z" fill="url(#paint1_linear_196_2323)"/>
<path d="M156.037 38.3199V27.9999H166.477V87.9999H156.037V77.6799C150.917 85.5999 143.357 89.5599 133.357 89.5599C124.877 89.5599 117.717 86.5199 111.877 80.4399C105.957 74.2799 102.997 66.7999 102.997 57.9999C102.997 49.2799 105.957 41.8399 111.877 35.6799C117.797 29.5199 124.957 26.4399 133.357 26.4399C143.357 26.4399 150.917 30.3999 156.037 38.3199ZM134.677 79.4799C140.757 79.4799 145.837 77.4399 149.917 73.3599C153.997 69.1199 156.037 63.9999 156.037 57.9999C156.037 51.9199 153.997 46.8399 149.917 42.7599C145.837 38.5999 140.757 36.5199 134.677 36.5199C128.677 36.5199 123.637 38.5999 119.557 42.7599C115.477 46.8399 113.437 51.9199 113.437 57.9999C113.437 63.9999 115.477 69.1199 119.557 73.3599C123.637 77.4399 128.677 79.4799 134.677 79.4799Z" fill="url(#paint2_linear_196_2323)"/>
<path d="M192.735 87.9999H182.295V0.399902H192.735V87.9999Z" fill="url(#paint3_linear_196_2323)"/>
<path d="M273.462 26.4399C280.262 26.4399 285.702 28.6399 289.782 33.0399C293.942 37.4399 296.022 43.3199 296.022 50.6799V87.9999H285.582V51.0399C285.582 46.4799 284.382 42.9199 281.982 40.3599C279.662 37.7199 276.462 36.3999 272.382 36.3999C267.742 36.3999 264.102 37.9599 261.462 41.0799C258.902 44.1199 257.622 48.6399 257.622 54.6399V87.9999H247.182V51.0399C247.182 46.4799 246.022 42.9199 243.702 40.3599C241.462 37.7199 238.382 36.3999 234.462 36.3999C229.902 36.3999 226.182 37.9999 223.302 41.1999C220.502 44.3199 219.102 48.7999 219.102 54.6399V87.9999H208.662V27.9999H219.102V36.0399C223.182 29.6399 229.142 26.4399 236.982 26.4399C245.062 26.4399 250.942 29.8399 254.622 36.6399C258.782 29.8399 265.062 26.4399 273.462 26.4399Z" fill="url(#paint4_linear_196_2323)"/>
<path d="M368.098 62.7999H317.818C318.858 68.0799 321.298 72.2399 325.138 75.2799C328.978 78.2399 333.778 79.7199 339.538 79.7199C347.458 79.7199 353.218 76.7999 356.818 70.9599L365.698 75.9999C359.778 85.0399 350.978 89.5599 339.298 89.5599C329.858 89.5599 322.098 86.5999 316.018 80.6799C310.098 74.5999 307.138 67.0399 307.138 57.9999C307.138 48.8799 310.058 41.3599 315.898 35.4399C321.738 29.4399 329.298 26.4399 338.578 26.4399C347.378 26.4399 354.538 29.5599 360.058 35.7999C365.658 41.8799 368.458 49.3199 368.458 58.1199C368.458 59.6399 368.338 61.1999 368.098 62.7999ZM338.578 36.2799C333.058 36.2799 328.418 37.8399 324.658 40.9599C320.978 44.0799 318.698 48.3199 317.818 53.6799H357.898C357.018 48.1599 354.818 43.8799 351.298 40.8399C347.778 37.7999 343.538 36.2799 338.578 36.2799Z" fill="url(#paint5_linear_196_2323)"/>
<path d="M438.659 89.5599C429.619 89.5599 422.099 86.5599 416.099 80.5599C410.099 74.4799 407.099 66.9599 407.099 57.9999C407.099 49.0399 410.099 41.5599 416.099 35.5599C422.099 29.4799 429.619 26.4399 438.659 26.4399C444.579 26.4399 449.899 27.8799 454.619 30.7599C459.339 33.5599 462.859 37.3599 465.179 42.1599L456.419 47.1999C454.899 43.9999 452.539 41.4399 449.339 39.5199C446.219 37.5999 442.659 36.6399 438.659 36.6399C432.659 36.6399 427.619 38.6799 423.539 42.7599C419.539 46.9199 417.539 51.9999 417.539 57.9999C417.539 63.9199 419.539 68.9599 423.539 73.1199C427.619 77.1999 432.659 79.2399 438.659 79.2399C442.659 79.2399 446.259 78.3199 449.459 76.4799C452.659 74.5599 455.099 71.9999 456.779 68.7999L465.659 73.9599C463.019 78.7599 459.299 82.5599 454.499 85.3599C449.699 88.1599 444.419 89.5599 438.659 89.5599Z" fill="url(#paint6_linear_196_2323)"/>
<path d="M524.826 38.3199V27.9999H535.266V87.9999H524.826V77.6799C519.706 85.5999 512.146 89.5599 502.146 89.5599C493.666 89.5599 486.506 86.5199 480.666 80.4399C474.746 74.2799 471.786 66.7999 471.786 57.9999C471.786 49.2799 474.746 41.8399 480.666 35.6799C486.586 29.5199 493.746 26.4399 502.146 26.4399C512.146 26.4399 519.706 30.3999 524.826 38.3199ZM503.466 79.4799C509.546 79.4799 514.626 77.4399 518.706 73.3599C522.786 69.1199 524.826 63.9999 524.826 57.9999C524.826 51.9199 522.786 46.8399 518.706 42.7599C514.626 38.5999 509.546 36.5199 503.466 36.5199C497.466 36.5199 492.426 38.5999 488.346 42.7599C484.267 46.8399 482.226 51.9199 482.226 57.9999C482.226 63.9999 484.267 69.1199 488.346 73.3599C492.426 77.4399 497.466 79.4799 503.466 79.4799Z" fill="url(#paint7_linear_196_2323)"/>
<path d="M561.524 27.9999V38.0799C564.964 30.6399 571.204 26.9199 580.244 26.9199V37.8399C575.124 37.5999 570.724 38.9599 567.044 41.9199C563.364 44.8799 561.524 49.6399 561.524 56.1999V87.9999H551.084V27.9999H561.524Z" fill="url(#paint8_linear_196_2323)"/>
<path d="M644.778 62.7999H594.498C595.538 68.0799 597.978 72.2399 601.818 75.2799C605.658 78.2399 610.458 79.7199 616.218 79.7199C624.138 79.7199 629.898 76.7999 633.498 70.9599L642.378 75.9999C636.458 85.0399 627.658 89.5599 615.978 89.5599C606.538 89.5599 598.778 86.5999 592.698 80.6799C586.778 74.5999 583.818 67.0399 583.818 57.9999C583.818 48.8799 586.738 41.3599 592.578 35.4399C598.418 29.4399 605.978 26.4399 615.258 26.4399C624.058 26.4399 631.218 29.5599 636.738 35.7999C642.338 41.8799 645.138 49.3199 645.138 58.1199C645.138 59.6399 645.018 61.1999 644.778 62.7999ZM615.258 36.2799C609.738 36.2799 605.098 37.8399 601.338 40.9599C597.658 44.0799 595.378 48.3199 594.498 53.6799H634.578C633.698 48.1599 631.498 43.8799 627.978 40.8399C624.458 37.7999 620.218 36.2799 615.258 36.2799Z" fill="url(#paint9_linear_196_2323)"/>
<defs>
<linearGradient id="paint0_linear_196_2323" x1="-7.5" y1="67.3038" x2="632.909" y2="67.3038" gradientUnits="userSpaceOnUse">
<stop stop-color="#0225AE"/>
<stop offset="0.33125" stop-color="#EF3531"/>
<stop offset="0.501594" stop-color="#FFBF00"/>
<stop offset="0.70625" stop-color="#E42737"/>
<stop offset="1" stop-color="#0524AD"/>
</linearGradient>
<linearGradient id="paint1_linear_196_2323" x1="-7.5" y1="67.3038" x2="632.909" y2="67.3038" gradientUnits="userSpaceOnUse">
<stop stop-color="#0225AE"/>
<stop offset="0.33125" stop-color="#EF3531"/>
<stop offset="0.501594" stop-color="#FFBF00"/>
<stop offset="0.70625" stop-color="#E42737"/>
<stop offset="1" stop-color="#0524AD"/>
</linearGradient>
<linearGradient id="paint2_linear_196_2323" x1="-7.5" y1="67.3038" x2="632.909" y2="67.3038" gradientUnits="userSpaceOnUse">
<stop stop-color="#0225AE"/>
<stop offset="0.33125" stop-color="#EF3531"/>
<stop offset="0.501594" stop-color="#FFBF00"/>
<stop offset="0.70625" stop-color="#E42737"/>
<stop offset="1" stop-color="#0524AD"/>
</linearGradient>
<linearGradient id="paint3_linear_196_2323" x1="-7.5" y1="67.3038" x2="632.909" y2="67.3038" gradientUnits="userSpaceOnUse">
<stop stop-color="#0225AE"/>
<stop offset="0.33125" stop-color="#EF3531"/>
<stop offset="0.501594" stop-color="#FFBF00"/>
<stop offset="0.70625" stop-color="#E42737"/>
<stop offset="1" stop-color="#0524AD"/>
</linearGradient>
<linearGradient id="paint4_linear_196_2323" x1="-7.5" y1="67.3038" x2="632.909" y2="67.3038" gradientUnits="userSpaceOnUse">
<stop stop-color="#0225AE"/>
<stop offset="0.33125" stop-color="#EF3531"/>
<stop offset="0.501594" stop-color="#FFBF00"/>
<stop offset="0.70625" stop-color="#E42737"/>
<stop offset="1" stop-color="#0524AD"/>
</linearGradient>
<linearGradient id="paint5_linear_196_2323" x1="-7.5" y1="67.3038" x2="632.909" y2="67.3038" gradientUnits="userSpaceOnUse">
<stop stop-color="#0225AE"/>
<stop offset="0.33125" stop-color="#EF3531"/>
<stop offset="0.501594" stop-color="#FFBF00"/>
<stop offset="0.70625" stop-color="#E42737"/>
<stop offset="1" stop-color="#0524AD"/>
</linearGradient>
<linearGradient id="paint6_linear_196_2323" x1="-7.5" y1="67.3038" x2="632.909" y2="67.3038" gradientUnits="userSpaceOnUse">
<stop stop-color="#0225AE"/>
<stop offset="0.33125" stop-color="#EF3531"/>
<stop offset="0.501594" stop-color="#FFBF00"/>
<stop offset="0.70625" stop-color="#E42737"/>
<stop offset="1" stop-color="#0524AD"/>
</linearGradient>
<linearGradient id="paint7_linear_196_2323" x1="-7.5" y1="67.3038" x2="632.909" y2="67.3038" gradientUnits="userSpaceOnUse">
<stop stop-color="#0225AE"/>
<stop offset="0.33125" stop-color="#EF3531"/>
<stop offset="0.501594" stop-color="#FFBF00"/>
<stop offset="0.70625" stop-color="#E42737"/>
<stop offset="1" stop-color="#0524AD"/>
</linearGradient>
<linearGradient id="paint8_linear_196_2323" x1="-7.5" y1="67.3038" x2="632.909" y2="67.3038" gradientUnits="userSpaceOnUse">
<stop stop-color="#0225AE"/>
<stop offset="0.33125" stop-color="#EF3531"/>
<stop offset="0.501594" stop-color="#FFBF00"/>
<stop offset="0.70625" stop-color="#E42737"/>
<stop offset="1" stop-color="#0524AD"/>
</linearGradient>
<linearGradient id="paint9_linear_196_2323" x1="-7.5" y1="67.3038" x2="632.909" y2="67.3038" gradientUnits="userSpaceOnUse">
<stop stop-color="#0225AE"/>
<stop offset="0.33125" stop-color="#EF3531"/>
<stop offset="0.501594" stop-color="#FFBF00"/>
<stop offset="0.70625" stop-color="#E42737"/>
<stop offset="1" stop-color="#0524AD"/>
</linearGradient>
</defs>
</svg>
